<?xml version="1.0" encoding="utf-8"?>
<!-- Generator: Adobe Illustrator 26.0.2, SVG Export Plug-In . SVG Version: 6.00 Build 0)  -->
<svg version="1.1" id="Layer_1" xmlns="http://www.w3.org/2000/svg" xmlns:xlink="http://www.w3.org/1999/xlink" x="0px" y="0px"
	 viewBox="0 0 507.7 398" style="enable-background:new 0 0 507.7 398;" xml:space="preserve">
<style type="text/css">
	.st0{fill:#FFFFFF;}
</style>
<g>
	<path class="st0" d="M294.9,224c-6.2,0-11.2-5-11.2-11.2V11.2c0-6.2,5-11.2,11.2-11.2h201.6c6.2,0,11.2,5,11.2,11.2v201.6
		c0,6.2-2.6,15.5-5.7,20.8l-92.3,155.2c-3.1,5.3-10.8,9.4-16.9,9.1l-54-2.5c-6.2-0.3-10-5.4-8.6-11.4L365,234.9
		c1.4-6-2.5-10.9-8.7-10.9L294.9,224z"/>
	<path class="st0" d="M11.2,224C5,224,0,219,0,212.8V11.2C0,5,5,0,11.2,0h201.6C219,0,224,5,224,11.2v201.6c0,6.2-2.6,15.5-5.7,20.8
		L126,388.9c-3.1,5.3-10.8,9.4-16.9,9.1l-54-2.5c-6.2-0.3-10-5.4-8.6-11.4l34.8-149.2c1.4-6-2.5-10.9-8.7-10.9L11.2,224z"/>
</g>
</svg>
